<?xml version="1.0" standalone="no"?>
<!DOCTYPE svg PUBLIC "-//W3C//DTD SVG 20010904//EN"
 "http://www.w3.org/TR/2001/REC-SVG-20010904/DTD/svg10.dtd">
<svg version="1.0" xmlns="http://www.w3.org/2000/svg"
 width="1024.000000pt" height="1024.000000pt" viewBox="0 0 1024.000000 1024.000000"
 preserveAspectRatio="xMidYMid meet">

<g transform="translate(0.000000,1024.000000) scale(0.100000,-0.100000)"
fill="#000000" stroke="none">
<path d="M3251 7934 c-1 -18 -115 -92 -204 -134 -95 -44 -237 -81 -422 -110
-217 -34 -306 -50 -403 -76 -351 -93 -600 -250 -751 -475 -187 -278 -190 -651
-9 -1001 75 -145 183 -281 408 -514 210 -217 299 -322 368 -436 199 -325 255
-704 152 -1013 -26 -77 -44 -104 -36 -54 9 53 -11 279 -33 384 -63 296 -207
515 -506 773 -355 305 -478 470 -581 776 -19 55 -39 134 -46 178 -7 43 -15 78
-19 78 -21 0 -74 -289 -90 -495 -14 -176 -6 -510 16 -630 81 -455 279 -742
714 -1035 77 -52 323 -171 405 -196 32 -10 60 -24 63 -31 10 -26 -81 -268
-135 -358 -60 -100 -147 -209 -222 -277 -102 -94 -203 -148 -359 -194 -22 -7
-6 -15 56 -30 348 -82 701 210 891 737 l37 103 87 13 c235 33 451 147 644 338
181 179 286 372 330 602 24 131 15 366 -19 488 -64 228 -207 448 -398 611 -71
61 -255 197 -514 382 -44 31 -128 104 -186 162 -84 83 -113 120 -140 175 -31
64 -34 77 -34 165 0 89 2 101 34 162 44 88 153 195 282 278 285 184 341 224
410 291 41 41 95 106 121 144 50 76 103 197 95 217 -3 7 -6 8 -6 2z m-816
-522 c-210 -109 -348 -244 -425 -415 -43 -96 -53 -157 -48 -271 10 -182 61
-298 243 -551 262 -363 334 -566 310 -873 -9 -102 -9 -102 -35 18 -26 121 -78
254 -142 360 -39 63 -156 217 -226 297 -266 302 -362 516 -349 773 9 174 65
297 192 426 93 93 173 148 300 203 83 37 220 79 255 80 8 0 -26 -21 -75 -47z
m550 -1632 c136 -203 193 -371 202 -595 6 -161 -8 -266 -56 -413 -66 -202
-156 -354 -299 -504 -84 -88 -212 -198 -230 -198 -5 0 4 37 20 83 134 373 263
896 289 1167 21 229 -6 547 -53 609 -7 9 5 0 26 -19 20 -19 66 -78 101 -130z
m-1639 -448 c59 -103 202 -279 380 -468 256 -274 363 -422 429 -599 34 -88 34
-125 1 -68 -82 143 -160 238 -396 478 -173 176 -262 275 -302 335 -56 85 -116
215 -138 300 -6 25 -14 53 -17 64 -9 31 13 10 43 -42z"/>
<path d="M2524 6960 c-73 -17 -72 -20 16 -54 109 -43 349 -163 465 -233 197
-120 349 -253 455 -400 25 -34 47 -63 50 -63 3 0 4 37 2 83 -13 350 -258 589
-676 662 -92 16 -257 19 -312 5z"/>
<path d="M4704 6850 c-99 -21 -200 -96 -239 -175 -27 -55 -33 -182 -11 -238
19 -50 73 -108 132 -143 23 -13 97 -45 165 -69 169 -61 210 -95 211 -171 1
-92 -63 -143 -179 -144 -75 0 -143 24 -213 74 -28 20 -52 36 -54 36 -2 0 -30
-30 -62 -66 l-58 -67 44 -40 c148 -130 388 -165 558 -79 66 33 136 109 157
171 18 55 19 173 1 224 -39 109 -108 162 -312 242 -154 61 -195 90 -196 144
-2 76 65 124 171 123 69 0 169 -30 191 -57 7 -8 16 -15 21 -15 5 0 31 33 58
74 l50 74 -49 32 c-28 18 -78 41 -113 52 -70 22 -212 32 -273 18z"/>
<path d="M7780 6853 c-101 -17 -200 -80 -244 -155 -52 -91 -53 -216 -1 -303
41 -70 99 -107 275 -171 58 -21 122 -49 142 -62 69 -44 85 -126 39 -191 -47
-66 -183 -82 -286 -33 -33 16 -74 41 -91 55 -18 15 -34 27 -37 27 -8 0 -117
-131 -117 -140 0 -17 129 -100 196 -127 61 -24 82 -27 184 -27 149 0 209 21
290 103 71 71 95 138 88 245 -11 164 -90 245 -326 331 -157 57 -198 93 -188
164 10 68 70 105 166 104 69 -1 134 -20 180 -53 15 -11 30 -20 33 -20 11 0 98
143 93 155 -8 21 -126 74 -201 90 -67 14 -141 17 -195 8z"/>
<path d="M5670 6825 c-4 -5 -45 -107 -90 -225 -132 -348 -320 -849 -320 -855
0 -3 50 -4 111 -3 l111 3 17 45 c10 25 30 80 45 123 l28 77 211 -2 212 -3 44
-122 43 -123 109 0 c60 0 109 4 109 9 0 8 -63 173 -242 636 -28 72 -71 182
-95 245 -25 63 -52 135 -61 158 l-17 44 -103 1 c-59 1 -107 -2 -112 -8z m130
-272 c0 -10 94 -285 125 -365 7 -17 -4 -18 -144 -18 -83 0 -151 2 -151 5 0 2
32 92 70 200 39 108 70 203 70 213 1 15 2 15 15 -2 8 -11 15 -26 15 -33z"/>
<path d="M6765 6829 c-9 -28 -117 -316 -259 -689 -80 -212 -146 -389 -146
-393 0 -4 51 -6 112 -5 l113 3 44 123 43 122 212 0 211 0 44 -125 44 -125 113
0 113 0 -24 63 c-47 124 -164 427 -260 672 -53 138 -106 274 -117 303 l-19 52
-94 0 c-51 0 -100 3 -109 6 -9 3 -18 0 -21 -7z m249 -608 c9 -24 16 -45 16
-47 0 -2 -68 -4 -151 -4 -140 0 -151 1 -144 18 4 9 36 100 71 202 35 102 67
191 69 199 3 8 32 -62 64 -155 33 -93 66 -189 75 -213z"/>
<path d="M5840 5484 c-200 -42 -368 -201 -425 -399 -21 -72 -21 -216 0 -297
67 -259 284 -418 570 -418 173 0 293 42 397 139 l58 53 0 204 0 204 -224 0
-225 0 -3 -90 -3 -90 116 0 c135 0 132 2 122 -93 -7 -74 -19 -90 -89 -116 -74
-28 -139 -35 -213 -21 -124 22 -215 92 -268 205 -26 55 -28 70 -28 175 0 103
3 121 26 171 34 72 90 128 165 165 52 26 69 29 149 28 104 0 177 -24 252 -81
l46 -35 66 66 65 66 -39 40 c-48 49 -180 115 -259 129 -79 14 -176 13 -256 -5z"/>
<path d="M7942 5480 c-99 -26 -164 -63 -243 -138 -75 -70 -127 -159 -154 -262
-23 -87 -16 -249 15 -337 48 -138 147 -251 275 -313 105 -51 179 -64 313 -57
168 8 267 52 374 165 101 106 146 211 155 362 9 172 -42 315 -157 431 -68 69
-122 103 -217 139 -85 33 -261 38 -361 10z m313 -204 c78 -35 136 -93 172
-170 26 -56 28 -70 28 -176 -1 -134 -16 -179 -86 -255 -54 -59 -107 -90 -188
-111 -54 -13 -74 -14 -125 -4 -128 25 -222 97 -275 209 -23 50 -26 68 -26 171
0 106 2 119 27 167 73 138 188 206 338 200 56 -3 91 -10 135 -31z"/>
<path d="M4710 5393 c-53 -142 -277 -727 -331 -866 -27 -70 -49 -130 -49 -132
0 -3 51 -4 112 -3 l113 3 45 122 45 123 209 -3 208 -2 13 -35 c7 -19 28 -74
46 -122 l32 -88 108 0 c60 0 109 1 109 3 0 15 -167 459 -245 652 -13 33 -53
137 -89 230 -35 94 -68 178 -71 188 -6 15 -22 17 -114 17 l-108 0 -33 -87z
m290 -580 c0 -2 -65 -3 -145 -3 -116 0 -145 3 -145 14 0 7 20 69 44 137 25 68
57 159 72 202 l27 79 74 -214 c40 -117 73 -214 73 -215z"/>
<path d="M6640 4935 l0 -545 105 0 105 0 0 220 0 221 58 -3 57 -3 62 -115 c34
-63 87 -161 118 -217 l56 -103 120 0 121 0 -20 33 c-11 17 -44 75 -74 127 -30
52 -81 140 -113 195 -53 90 -56 100 -40 110 115 69 154 112 180 198 44 148 -9
299 -128 367 -86 49 -160 60 -396 60 l-211 0 0 -545z m447 341 c61 -29 83 -64
83 -133 0 -108 -65 -152 -222 -153 l-98 0 0 155 0 155 93 0 c76 0 101 -4 144
-24z"/>
<path d="M6062 4139 c-314 -45 -519 -340 -458 -659 60 -317 346 -506 675 -446
109 19 196 63 277 138 l64 60 0 192 0 191 -223 0 -222 0 -3 -87 -3 -88 121 0
120 0 0 -75 0 -75 -51 -29 c-97 -55 -234 -64 -334 -21 -68 29 -147 109 -181
183 -26 56 -29 73 -29 167 0 95 3 111 29 167 99 216 372 263 578 102 l36 -29
59 65 c32 37 59 70 61 74 4 13 -87 86 -144 114 -100 50 -250 73 -372 56z"/>
<path d="M4425 4121 c-3 -2 -5 -244 -5 -538 l0 -533 310 0 310 0 0 95 0 95
-205 0 -205 0 0 443 0 442 -100 1 c-55 0 -103 -2 -105 -5z"/>
<path d="M5200 3590 l0 -540 105 0 105 0 0 538 0 537 -105 3 -105 2 0 -540z"/>
<path d="M6826 4123 c-3 -4 -6 -246 -6 -540 l0 -533 105 0 105 0 0 225 0 225
230 0 230 0 0 -227 0 -228 102 3 103 3 0 537 0 537 -102 3 -103 2 0 -220 0
-220 -230 0 -230 0 0 218 0 217 -99 2 c-55 1 -102 -1 -105 -4z"/>
<path d="M7840 4050 c0 -43 -3 -85 -6 -94 -5 -14 11 -16 140 -16 l146 0 0
-445 0 -445 105 0 105 0 0 445 0 445 150 0 150 0 -2 93 -3 92 -392 1 -393 2 0
-78z"/>
</g>
</svg>
